Patient4_TMGait_0pt5_02_right_25_EMG.mot
version=1
nRows=29
nColumns=33
inDegrees=no
endheader
time	1LAddLong	2LGlutMax	3LGlutMed	4LIliopsoas	5LSemiMemb	6LBicFemLong	7LRecFem	8LVastMed	9LVastLat	10LGasMed	11LTibAnt	12lTibPost	13LPeroneusLong	14LSol	15LExtDigLong	16LFlexDigLong	17RAddLong	18RGlutMax	19RGlutMed	20RIliopsoas	21RSemiMemb	22RBicFemLong	23RRecFem	24RVastMed	25RVastLat	26RGasMed	27RTibAnt	28RTibPost	29RPeroneusLong	30RSol	31RExtDigLong	32RFlexDigLong
33.955	-0.00061	-0.011444	-0.079651	0.027771	0	-0.026703	0.12405	-0.011749	0.010071	0.040283	-0.093689	0.010834	0.19531	-0.010681	-0.4422	-0.00412	-0.039368	-0.10223	-0.19699	0.041199	0.17303	0.019226	-0.033264	-0.019989	0.010376	-0.001984	0.000305	-0.000153	-0.060577	-0.040894	-0.000763	0.000458
33.956	-0.001526	-0.03006	-0.055542	0.021057	-0.006409	-0.035553	0.12421	-0.001221	0.005341	0.003967	-0.21301	0.009308	0.12726	-0.015259	-0.18982	0.000153	-0.024414	-0.10483	-0.16129	0.029907	0.077667	0.021515	-0.017242	-0.001678	0.020294	-0.003204	-0.016937	-0.00351	0.023651	-0.022736	0.000305	0.006561
33.957	0	-0.05661	0.07309	0.009308	0.031128	-0.03952	0.12604	-0.007935	0.001221	-0.033569	-0.19989	0.008545	-0.080414	-0.097351	-0.14862	0.002289	0.000305	-0.12329	-0.16937	0.016327	-0.1149	0.045624	0.003662	-0.083618	0.008087	-0.011597	-0.02655	-0.00351	0.44678	-0.038147	0.001221	0.007629
33.958	0.00824	-0.040894	0.032501	-0.015106	0.017242	-0.033112	0.12314	-0.006866	-0.00885	0.011139	-0.16449	0.006866	-0.15396	-0.22003	-0.063782	-0.00885	0.021362	-0.10223	-0.06546	0.040894	-0.10498	0.042267	-0.011749	-0.061035	-0.005798	-0.015106	0.001831	-0.000153	0.71503	-0.033569	0.000153	0.006256
33.959	-0.05249	-0.007324	-0.07431	-0.001373	0.001831	-0.037079	0.086823	-0.006561	0.005493	0.005341	-0.11398	0.008087	-0.15396	-0.2652	0.053558	-0.00824	-0.012817	-0.1207	0.001068	0.002289	-0.075226	0.054779	0.00946	-0.04425	0.010223	-0.003052	0.018921	-0.002441	-0.091553	-0.035553	-0.002289	0.000305
33.96	0.024719	0.016937	-0.082397	-0.00351	0.002899	-0.019989	0.0737	-0.008545	0.00061	0.007172	-0.10361	0.014648	-0.18204	-0.16907	0.36835	-0.003052	-0.028687	-0.11307	0.053864	-0.04837	0.000763	0.05188	-0.020142	-0.027771	-0.003357	-0.013428	0.020447	0.001373	-0.19165	-0.018616	0.001984	0.009613
33.961	-0.013733	-0.005493	0.028687	-0.002594	-0.012054	0.005188	0.10971	-0.003967	-0.007782	0.012207	-0.040588	0.00946	-0.18372	-0.074463	0.072174	-0.004272	0.002136	-0.093384	0.059814	-0.04715	0.013123	0.045471	0.010376	-0.000916	0.010223	-0.014648	0.023041	-0.000458	-0.13062	-0.012665	-0.003052	0.004425
33.962	0.044556	0.009918	0.025787	-0.003815	-0.022583	-0.013733	0.11246	-0.004578	-0.009003	0.036774	0.20813	0.005646	-0.15976	-0.031738	0.37262	-0.003815	0.027161	-0.10513	0.19104	-0.015259	-0.020142	0.048828	0.011597	-0.041504	-0.00061	-0.018616	-0.031433	0.007629	0.017548	-0.023499	0.001984	0.004425
33.963	0.03891	0.018005	0.032043	0.007477	0.01709	0.051117	0.090332	-0.007172	0.017242	0.031433	0.35889	0.004578	-0.15732	-0.013428	0.24689	0.008087	0.029602	-0.15869	0.15015	0.045776	0.063629	0.032196	-0.003357	-0.072479	0.011139	-0.021057	-0.11581	-0.000305	0.26825	-0.047302	0.001068	0.014801
33.964	0.018616	0.029755	0.006714	0.009613	0.044861	0.086975	0.12482	-0.004425	0.015106	0.021973	0.29968	0.010986	-0.14175	-0.023499	-0.02594	0.003052	0.022583	-0.10559	0.059967	0.026703	0.067444	-0.003662	0.034637	-0.079041	0.010071	-0.020294	-0.11795	-0.004883	0.083923	0.001068	-0.003662	0.010376
33.965	0.014191	0.036011	-0.019073	0.001831	0.055237	0.010071	0.15213	-0.009766	-0.001831	0.015106	0.14343	0.007324	-0.13489	-0.10422	0.034943	-0.003052	0.019226	-0.079651	0.11902	0.016632	0.042419	-0.015259	-0.017548	-0.067139	0.012512	-0.024109	-0.095825	-0.003052	0.00473	0.039215	-0.001373	-0.001678
33.966	0.028534	0.041809	0.022278	-0.002594	0.076447	-0.016479	0.15839	-0.009918	0.006104	0.017853	0.006714	0.002441	-0.083466	-0.11169	-0.19653	0.012207	0.034637	-0.10284	-0.051727	0.034637	0.040894	-0.033417	-0.013733	-0.095978	0.023651	-0.025177	-0.028839	0.006256	0.14343	0.010834	0.000153	-0.013275
33.967	0.021362	0.048218	0.042725	0.007782	0.04364	-0.022583	0.1561	-0.005951	0.021667	0.025482	-0.015106	0.003204	-0.12848	-0.092163	-0.25559	0.001678	0.019836	-0.079803	-0.069122	0.015259	-0.004272	0.008087	-0.032654	-0.044556	0.023193	-0.032654	0.074768	0.000153	-0.022888	-0.000458	0	-0.032501
33.968	0.013428	0.057526	0.074463	0.016022	0.032501	0.018311	0.14496	0.001526	-0.012207	-0.027161	-0.1239	0.010529	-0.002441	-0.059967	-0.26779	0.006561	-0.000458	-0.1004	0.026398	-0.047607	-0.017395	0.059052	-0.059967	-0.020599	0.013885	-0.021362	0.14572	0.00061	-0.20523	-0.00412	0.00061	-0.062256
33.969	0.001984	0.054779	0.014954	0.017853	0.027924	0.040131	0.15076	0.001373	-0.036011	-0.041962	-0.23758	0.010376	0.22888	-0.077515	-0.36407	-0.001221	-0.026855	-0.087433	0.21515	-0.075684	0.00885	0.028381	-0.02594	-0.033112	0.033417	-0.014648	0.18112	0.000153	-0.22964	-0.009613	0	-0.080414
33.97	0.001984	0.044861	-0.027771	0.006256	0.02182	0.07019	0.1178	0.006256	-0.038757	-0.034027	-0.14694	0.00885	0.082703	-0.053711	-0.15884	0.00061	-0.039978	-0.081787	0.10757	-0.18066	0.012207	-0.017853	-0.038605	0.023193	0.022583	-0.000305	0.052032	-0.006714	0.16129	-0.031891	-0.002441	-0.094604
33.971	0.01358	0.075531	-0.046692	-0.004883	0.015411	0.05661	0.053253	0.007172	-0.05722	0.028229	-0.036163	0.009766	-0.2385	-0.056152	0.29785	0.001984	-0.064392	-0.099182	-0.076141	-0.24582	-0.033264	-0.042419	-0.045319	0.023499	0.031586	0.016479	-0.045013	-0.001068	0.16327	-0.018311	-0.001831	-0.099487
33.972	-0.002594	0.067444	-0.04303	0.009155	0.019989	0.085602	0.053558	0.012054	-0.024719	0.021057	-0.043335	0.006409	-0.29953	-0.059509	0.47424	0.002136	-0.046539	-0.12161	-0.021362	-0.034027	0.008698	-0.042419	-0.031891	0.031891	0.010986	0.04776	-0.023346	-0.006409	0.28763	-0.019989	0.000305	-0.093079
33.973	0.005341	0.044403	-0.061951	-0.001526	0.016174	0.097961	0.013885	0.00473	-0.11612	0.018768	-0.03952	0.008545	-0.30777	-0.034027	0.1442	0.000458	-0.018616	-0.083008	0.049133	0.024567	0.000916	0.013275	-0.029602	0.028381	-0.00351	0.071716	0.010071	-0.005188	0.17014	-0.014648	0.001526	-0.086517
33.974	0.005951	0.030518	-0.15732	0.018768	0.006409	-0.096436	-0.013428	0.002441	0.017395	0.015106	-0.041199	0.003357	0.34317	0.041656	-0.022583	-0.006866	0.015564	-0.079803	-0.005341	0.018616	-0.10895	0.075989	-0.055847	0.000916	0.018311	0.093994	0.010071	-0.005798	0.096436	-0.033875	0.000305	-0.06897
33.975	-0.001068	0.070496	-0.093079	0.015411	0.015106	-0.080872	0.082397	0.004578	0.10925	0.006866	0.008087	0.006104	0.45151	0.052948	-0.023499	0.005341	0.010986	-0.10437	-0.036316	0.14511	-0.079956	0.077972	-0.005035	0.000305	0.014954	0.11078	-0.018463	-0.002289	0.049591	-0.033112	-0.002747	-0.063171
33.976	0.00946	0.042877	0.072174	-0.00473	0.014038	-0.051575	0.1265	0.002899	0.10376	-0.003052	0.0737	0.011902	0.31601	0.019531	0.37186	-0.007629	0.011292	-0.1091	0.009613	0.29022	-0.040894	0.033417	-0.061035	0.009308	0.006561	0.12619	-0.02594	-0.005188	0.024414	-0.045319	-0.002441	-0.047455
33.977	-0.000305	0.021515	0.056763	0.010986	0.016785	-0.034332	0.13748	-0.020142	0.04837	0.02533	0.15366	0.007629	0.3035	0.041809	0.56808	-0.020905	0.00824	-0.10925	0.10483	0.28	-0.019531	0.002289	-0.033722	-0.008087	0.02655	0.12421	-0.052795	-0.001984	0.030365	-0.043945	-0.004272	-0.031433
33.978	0.007172	-0.004425	0.027618	0.014343	0.012054	0.009766	0.090637	-0.014343	0.004425	0.028992	0.098267	0.00885	0.052185	0.001831	-0.09903	-0.007629	-0.005798	-0.09079	0.16373	0.22629	-0.066376	0.018311	-0.027771	0.004425	0.011749	0.11795	-0.058594	-0.011444	0.043793	-0.01709	-0.00412	-0.023193
33.979	-0.006866	0.036926	0.015717	0.024567	0.006561	0.032043	0.08194	-0.001678	-0.10223	0.013428	0.015259	0.007629	-0.065613	-0.050964	-0.3093	-0.009613	-0.007172	-0.089874	0.01358	0.10742	-0.074615	0.022583	-0.014038	-0.008087	0.021973	0.11002	-0.027008	-0.00885	0.019531	0.000153	-0.007324	-0.016479
33.98	-0.005341	0.043335	0.091858	-0.013428	-0.009918	0.038452	0.10727	0.000458	-0.089111	0.005798	-0.037842	0.00885	-0.015411	-0.037231	0.14236	0.005646	-0.001068	-0.10544	-0.15793	0.083008	0.040894	0.010834	-0.002747	-0.025635	0.026093	0.093689	0.005341	-0.001831	0.015869	0.013733	0.000305	-0.009918
33.981	-0.012512	0.0354	0.069427	-0.007477	-0.009918	0.10071	0.11383	0.001984	-0.019531	0.000458	-0.090942	0.011902	0.007782	-0.075531	-0.2179	-0.002136	0.001678	-0.084076	-0.1387	0.075531	0.033569	-0.035553	0.006561	-0.008545	0.024414	0.076752	0.029449	-0.006561	0.014496	0.023804	0.003357	-0.003357
33.982	-0.009613	0.04425	0.048828	-0.001678	-0.031128	0.17593	0.14282	0.00885	0.039673	0.011292	-0.11017	0.005798	-0.13657	-0.17716	-0.32349	0.008087	0.013123	-0.072174	-0.12512	0.028534	-0.004272	-0.11246	-0.022888	-0.009613	0.02594	0.071564	0.03891	-0.008392	0.029602	0.019073	-0.000458	-0.001984
33.983	-0.027008	0.069275	0.011749	-0.007935	-0.049133	0.20432	0.24521	0.003662	0.074158	0.022888	-0.057983	-0.001678	-0.20371	-0.21027	-0.42755	0.01358	0.025482	-0.093842	-0.11124	-0.042114	-0.001984	-0.16892	-0.039978	-0.015106	0.015717	0.058899	0.054779	-0.006256	-0.12054	0.015106	-0.002136	-0.000153
